<svg xmlns="http://www.w3.org/2000/svg" xmlns:xlink="http://www.w3.org/1999/xlink" width="450" zoomAndPan="magnify" viewBox="0 0 337.5 149.999998" height="200" preserveAspectRatio="xMidYMid meet" version="1.0"><defs><g/><clipPath id="6379a37c04"><path d="M 0 0.109375 L 337 0.109375 L 337 149.886719 L 0 149.886719 Z M 0 0.109375 " clip-rule="nonzero"/></clipPath><clipPath id="79cc5ac506"><path d="M 7.117188 0.109375 L 103.726562 0.109375 L 103.726562 149.886719 L 7.117188 149.886719 Z M 7.117188 0.109375 " clip-rule="nonzero"/></clipPath><clipPath id="9b8114bcd6"><path d="M 0 75 L 62.15625 75 L 62.15625 149.886719 L 0 149.886719 Z M 0 75 " clip-rule="nonzero"/></clipPath></defs><g clip-path="url(#6379a37c04)"><path fill="#ffffff" d="M 0 0.109375 L 337 0.109375 L 337 149.890625 L 0 149.890625 Z M 0 0.109375 " fill-opacity="1" fill-rule="nonzero"/><path fill="#fccc42" d="M 0 0.109375 L 337 0.109375 L 337 149.890625 L 0 149.890625 Z M 0 0.109375 " fill-opacity="1" fill-rule="nonzero"/></g><g clip-path="url(#79cc5ac506)"><path fill="#ffffff" d="M 28.40625 0.101562 L 93.785156 0.101562 L 74.75 61.347656 L 103.714844 61.347656 L 24.265625 149.898438 L 39.164062 86.867188 L 7.128906 86.867188 L 28.40625 0.101562 " fill-opacity="1" fill-rule="nonzero"/></g><g clip-path="url(#9b8114bcd6)"><path fill="#ff5757" d="M 0.015625 123.390625 C 0.015625 116.285156 1.9375 110.523438 5.007812 106.109375 C 5.007812 114.84375 7.121094 117.917969 11.730469 117.917969 C 14.800781 117.917969 17.96875 115.613281 17.96875 111.675781 C 17.96875 108.125 15.570312 101.691406 15.570312 94.777344 C 15.570312 87.867188 17.875 80.472656 27.28125 75 C 25.171875 80.570312 24.304688 85.273438 24.304688 89.113281 C 24.304688 99.289062 30.453125 103.898438 35.925781 103.898438 C 40.339844 103.898438 44.949219 101.019531 44.949219 92.667969 C 47.925781 95.929688 49.269531 99.675781 49.269531 103.417969 C 49.269531 109.371094 46.003906 114.652344 46.003906 119.453125 C 46.003906 123.390625 49.171875 125.695312 52.246094 125.695312 C 57.71875 125.695312 59.351562 120.796875 59.351562 112.734375 C 60.984375 115.515625 62.421875 120.988281 62.421875 125.695312 C 62.421875 139.710938 49.171875 149.890625 34.386719 149.890625 C 46.871094 145.183594 49.171875 138.945312 49.171875 131.933594 C 46.101562 137.40625 42.933594 138.175781 41.398438 138.175781 C 31.988281 138.175781 42.164062 120.222656 25.746094 107.738281 C 28.433594 113.5 29.492188 118.492188 29.492188 122.527344 C 29.492188 131.167969 24.785156 135.871094 20.273438 135.871094 C 16.433594 135.871094 12.59375 132.800781 11.058594 126.269531 C 11.058594 135.390625 13.746094 144.03125 25.746094 149.890625 C 7.023438 146.816406 0.015625 135.101562 0.015625 123.390625 Z M 0.015625 123.390625 " fill-opacity="1" fill-rule="nonzero"/></g><g fill="#ffffff" fill-opacity="1"><g transform="translate(81.644306, 134.819718)"><g><path d="M 24.574219 -41.371094 L 24.574219 -22.339844 C 24.574219 -21.714844 24.039062 -21.179688 23.410156 -21.179688 L 20.550781 -21.179688 C 19.925781 -21.179688 19.390625 -20.640625 19.390625 -20.015625 L 19.390625 -18.140625 C 19.390625 -17.515625 18.855469 -16.976562 18.230469 -16.976562 L 15.371094 -16.976562 C 14.742188 -16.976562 14.207031 -16.441406 14.207031 -15.816406 L 14.207031 -13.941406 C 14.207031 -13.3125 13.671875 -12.777344 13.046875 -12.777344 L 12.777344 -12.777344 C 12.152344 -12.777344 11.617188 -13.3125 11.617188 -13.941406 L 11.617188 -41.371094 C 11.617188 -42 11.082031 -42.535156 10.453125 -42.535156 L 2.414062 -42.535156 C 1.789062 -42.535156 1.25 -42 1.25 -41.371094 L 1.25 -1.160156 C 1.25 -0.535156 1.789062 0 2.414062 0 L 10.453125 0 C 11.082031 0 11.617188 -0.535156 11.617188 -1.160156 L 11.617188 -3.128906 C 11.617188 -3.753906 12.152344 -4.289062 12.777344 -4.289062 L 15.636719 -4.289062 C 16.261719 -4.289062 16.800781 -4.824219 16.800781 -5.449219 L 16.800781 -7.328125 C 16.800781 -7.953125 17.335938 -8.488281 17.960938 -8.488281 L 20.820312 -8.488281 C 21.445312 -8.488281 21.980469 -9.023438 21.980469 -9.652344 L 21.980469 -11.617188 C 21.980469 -12.242188 22.519531 -12.777344 23.144531 -12.777344 L 23.410156 -12.777344 C 24.039062 -12.777344 24.574219 -12.242188 24.574219 -11.617188 L 24.574219 -1.160156 C 24.574219 -0.535156 25.109375 0 25.734375 0 L 33.777344 0 C 34.402344 0 34.9375 -0.535156 34.9375 -1.160156 L 34.9375 -3.128906 C 34.9375 -3.753906 35.476562 -4.289062 36.101562 -4.289062 L 38.960938 -4.289062 C 39.585938 -4.289062 40.121094 -4.824219 40.121094 -5.449219 L 40.121094 -7.328125 C 40.121094 -7.953125 40.65625 -8.488281 41.285156 -8.488281 L 44.144531 -8.488281 C 44.769531 -8.488281 45.304688 -9.023438 45.304688 -9.652344 L 45.304688 -11.617188 C 45.304688 -12.242188 45.839844 -12.777344 46.464844 -12.777344 L 49.324219 -12.777344 C 49.949219 -12.777344 50.488281 -13.3125 50.488281 -13.941406 L 50.488281 -15.816406 C 50.488281 -16.441406 51.023438 -16.976562 51.648438 -16.976562 L 54.507812 -16.976562 C 55.132812 -16.976562 55.667969 -17.515625 55.667969 -18.140625 L 55.667969 -20.015625 C 55.667969 -20.640625 56.207031 -21.179688 56.832031 -21.179688 L 57.097656 -21.179688 C 57.726562 -21.179688 58.261719 -21.714844 58.261719 -22.339844 L 58.261719 -41.371094 C 58.261719 -42 57.726562 -42.535156 57.097656 -42.535156 L 49.058594 -42.535156 C 48.433594 -42.535156 47.894531 -42 47.894531 -41.371094 L 47.894531 -22.339844 C 47.894531 -21.714844 47.359375 -21.179688 46.734375 -21.179688 L 43.875 -21.179688 C 43.25 -21.179688 42.714844 -20.640625 42.714844 -20.015625 L 42.714844 -18.140625 C 42.714844 -17.515625 42.175781 -16.976562 41.550781 -16.976562 L 38.691406 -16.976562 C 38.066406 -16.976562 37.53125 -16.441406 37.53125 -15.816406 L 37.53125 -13.941406 C 37.53125 -13.3125 36.992188 -12.777344 36.367188 -12.777344 L 36.101562 -12.777344 C 35.476562 -12.777344 34.9375 -13.3125 34.9375 -13.941406 L 34.9375 -41.371094 C 34.9375 -42 34.402344 -42.535156 33.777344 -42.535156 L 25.734375 -42.535156 C 25.109375 -42.535156 24.574219 -42 24.574219 -41.371094 Z M 24.574219 -41.371094 "/></g></g></g><g fill="#ffffff" fill-opacity="1"><g transform="translate(141.15275, 134.819718)"><g><path d="M 11.617188 -26.628906 L 11.617188 -28.59375 C 11.617188 -29.21875 11.082031 -29.757812 10.453125 -29.757812 L 10.1875 -29.757812 C 9.5625 -29.757812 9.023438 -30.292969 9.023438 -30.917969 L 9.023438 -32.882812 C 9.023438 -33.507812 9.5625 -34.046875 10.1875 -34.046875 L 20.820312 -34.046875 C 21.445312 -34.046875 21.980469 -33.507812 21.980469 -32.882812 L 21.980469 -30.917969 C 21.980469 -30.292969 22.519531 -29.757812 23.144531 -29.757812 L 23.410156 -29.757812 C 24.039062 -29.757812 24.574219 -29.21875 24.574219 -28.59375 L 24.574219 -26.628906 C 24.574219 -26.003906 24.039062 -25.46875 23.410156 -25.46875 L 12.777344 -25.46875 C 12.152344 -25.46875 11.617188 -26.003906 11.617188 -26.628906 Z M 10.1875 0 L 31.1875 0 C 31.8125 0 32.347656 -0.535156 32.347656 -1.160156 L 32.347656 -7.328125 C 32.347656 -7.953125 31.8125 -8.488281 31.1875 -8.488281 L 12.777344 -8.488281 C 12.152344 -8.488281 11.617188 -9.023438 11.617188 -9.652344 L 11.617188 -11.617188 C 11.617188 -12.242188 11.082031 -12.777344 10.453125 -12.777344 L 10.1875 -12.777344 C 9.5625 -12.777344 9.023438 -13.3125 9.023438 -13.941406 L 9.023438 -15.816406 C 9.023438 -16.441406 9.5625 -16.976562 10.1875 -16.976562 L 31.1875 -16.976562 C 31.8125 -16.976562 32.347656 -17.515625 32.347656 -18.140625 L 32.347656 -32.882812 C 32.347656 -33.507812 31.8125 -34.046875 31.1875 -34.046875 L 30.917969 -34.046875 C 30.292969 -34.046875 29.757812 -34.582031 29.757812 -35.207031 L 29.757812 -37.082031 C 29.757812 -37.707031 29.21875 -38.246094 28.59375 -38.246094 L 25.734375 -38.246094 C 25.109375 -38.246094 24.574219 -38.78125 24.574219 -39.40625 L 24.574219 -41.371094 C 24.574219 -42 24.039062 -42.535156 23.410156 -42.535156 L 10.1875 -42.535156 C 9.5625 -42.535156 9.023438 -42 9.023438 -41.371094 L 9.023438 -39.40625 C 9.023438 -38.78125 8.488281 -38.246094 7.863281 -38.246094 L 5.003906 -38.246094 C 4.378906 -38.246094 3.84375 -37.707031 3.84375 -37.082031 L 3.84375 -35.207031 C 3.84375 -34.582031 3.304688 -34.046875 2.679688 -34.046875 L 2.414062 -34.046875 C 1.789062 -34.046875 1.25 -33.507812 1.25 -32.882812 L 1.25 -9.652344 C 1.25 -9.023438 1.789062 -8.488281 2.414062 -8.488281 L 2.679688 -8.488281 C 3.304688 -8.488281 3.84375 -7.953125 3.84375 -7.328125 L 3.84375 -5.449219 C 3.84375 -4.824219 4.378906 -4.289062 5.003906 -4.289062 L 7.863281 -4.289062 C 8.488281 -4.289062 9.023438 -3.753906 9.023438 -3.128906 L 9.023438 -1.160156 C 9.023438 -0.535156 9.5625 0 10.1875 0 Z M 10.1875 0 "/></g></g></g><g fill="#ffffff" fill-opacity="1"><g transform="translate(174.749109, 134.819718)"><g><path d="M 11.617188 -9.652344 L 11.617188 -28.59375 C 11.617188 -29.21875 11.082031 -29.757812 10.453125 -29.757812 L 10.1875 -29.757812 C 9.5625 -29.757812 9.023438 -30.292969 9.023438 -30.917969 L 9.023438 -32.882812 C 9.023438 -33.507812 9.5625 -34.046875 10.1875 -34.046875 L 20.820312 -34.046875 C 21.445312 -34.046875 21.980469 -33.507812 21.980469 -32.882812 L 21.980469 -13.941406 C 21.980469 -13.3125 22.519531 -12.777344 23.144531 -12.777344 L 23.410156 -12.777344 C 24.039062 -12.777344 24.574219 -12.242188 24.574219 -11.617188 L 24.574219 -9.652344 C 24.574219 -9.023438 24.039062 -8.488281 23.410156 -8.488281 L 12.777344 -8.488281 C 12.152344 -8.488281 11.617188 -9.023438 11.617188 -9.652344 Z M 24.574219 -1.160156 L 24.574219 -3.128906 C 24.574219 -3.753906 25.109375 -4.289062 25.734375 -4.289062 L 28.59375 -4.289062 C 29.21875 -4.289062 29.757812 -4.824219 29.757812 -5.449219 L 29.757812 -7.328125 C 29.757812 -7.953125 30.292969 -8.488281 30.917969 -8.488281 L 31.1875 -8.488281 C 31.8125 -8.488281 32.347656 -9.023438 32.347656 -9.652344 L 32.347656 -32.882812 C 32.347656 -33.507812 31.8125 -34.046875 31.1875 -34.046875 L 30.917969 -34.046875 C 30.292969 -34.046875 29.757812 -34.582031 29.757812 -35.207031 L 29.757812 -37.171875 C 29.757812 -37.796875 29.21875 -38.335938 28.59375 -38.335938 L 25.734375 -38.335938 C 25.109375 -38.335938 24.574219 -38.871094 24.574219 -39.496094 L 24.574219 -41.371094 C 24.574219 -42 24.039062 -42.535156 23.410156 -42.535156 L 15.371094 -42.535156 C 14.742188 -42.535156 14.207031 -42 14.207031 -41.371094 L 14.207031 -39.496094 C 14.207031 -38.871094 13.671875 -38.335938 13.046875 -38.335938 L 12.777344 -38.335938 C 12.152344 -38.335938 11.617188 -38.871094 11.617188 -39.496094 L 11.617188 -58.441406 C 11.617188 -59.066406 11.082031 -59.601562 10.453125 -59.601562 L 2.414062 -59.601562 C 1.789062 -59.601562 1.25 -59.066406 1.25 -58.441406 L 1.25 -1.160156 C 1.25 -0.535156 1.789062 0 2.414062 0 L 10.453125 0 C 11.082031 0 11.617188 -0.535156 11.617188 -1.160156 L 11.617188 -3.128906 C 11.617188 -3.753906 12.152344 -4.289062 12.777344 -4.289062 L 13.046875 -4.289062 C 13.671875 -4.289062 14.207031 -3.753906 14.207031 -3.128906 L 14.207031 -1.160156 C 14.207031 -0.535156 14.742188 0 15.371094 0 L 23.410156 0 C 24.039062 0 24.574219 -0.535156 24.574219 -1.160156 Z M 24.574219 -1.160156 "/></g></g></g><g fill="#ffffff" fill-opacity="1"><g transform="translate(208.345469, 134.819718)"><g><path d="M 2.414062 0 L 10.453125 0 C 11.082031 0 11.617188 -0.535156 11.617188 -1.160156 L 11.617188 -58.441406 C 11.617188 -59.066406 11.082031 -59.601562 10.453125 -59.601562 L 2.414062 -59.601562 C 1.789062 -59.601562 1.25 -59.066406 1.25 -58.441406 L 1.25 -1.160156 C 1.25 -0.535156 1.789062 0 2.414062 0 Z M 2.414062 0 "/></g></g></g><g fill="#ffffff" fill-opacity="1"><g transform="translate(221.212156, 134.819718)"><g><path d="M 9.023438 -9.652344 L 9.023438 -15.816406 C 9.023438 -16.441406 9.5625 -16.976562 10.1875 -16.976562 L 23.410156 -16.976562 C 24.039062 -16.976562 24.574219 -16.441406 24.574219 -15.816406 L 24.574219 -13.941406 C 24.574219 -13.3125 25.109375 -12.777344 25.734375 -12.777344 L 26.003906 -12.777344 C 26.628906 -12.777344 27.164062 -12.242188 27.164062 -11.617188 L 27.164062 -9.652344 C 27.164062 -9.023438 26.628906 -8.488281 26.003906 -8.488281 L 10.1875 -8.488281 C 9.5625 -8.488281 9.023438 -9.023438 9.023438 -9.652344 Z M 7.59375 0 L 20.820312 0 C 21.445312 0 21.980469 -0.535156 21.980469 -1.160156 L 21.980469 -3.128906 C 21.980469 -3.753906 22.519531 -4.289062 23.144531 -4.289062 L 23.410156 -4.289062 C 24.039062 -4.289062 24.574219 -3.753906 24.574219 -3.128906 L 24.574219 -1.160156 C 24.574219 -0.535156 25.109375 0 25.734375 0 L 31.1875 0 C 31.8125 0 32.347656 -0.535156 32.347656 -1.160156 L 32.347656 -32.882812 C 32.347656 -33.507812 31.8125 -34.046875 31.1875 -34.046875 L 30.917969 -34.046875 C 30.292969 -34.046875 29.757812 -34.582031 29.757812 -35.207031 L 29.757812 -37.171875 C 29.757812 -37.796875 29.21875 -38.335938 28.59375 -38.335938 L 28.328125 -38.335938 C 27.699219 -38.335938 27.164062 -38.871094 27.164062 -39.496094 L 27.164062 -41.371094 C 27.164062 -42 26.628906 -42.535156 26.003906 -42.535156 L 2.414062 -42.535156 C 1.789062 -42.535156 1.25 -42 1.25 -41.371094 L 1.25 -35.207031 C 1.25 -34.582031 1.789062 -34.046875 2.414062 -34.046875 L 26.003906 -34.046875 C 26.628906 -34.046875 27.164062 -33.507812 27.164062 -32.882812 L 27.164062 -30.917969 C 27.164062 -30.292969 26.628906 -29.757812 26.003906 -29.757812 L 25.734375 -29.757812 C 25.109375 -29.757812 24.574219 -29.21875 24.574219 -28.59375 L 24.574219 -26.628906 C 24.574219 -26.003906 24.039062 -25.46875 23.410156 -25.46875 L 7.59375 -25.46875 C 6.96875 -25.46875 6.433594 -24.929688 6.433594 -24.304688 L 6.433594 -22.339844 C 6.433594 -21.714844 5.898438 -21.179688 5.273438 -21.179688 L 5.003906 -21.179688 C 4.378906 -21.179688 3.84375 -20.640625 3.84375 -20.015625 L 3.84375 -18.140625 C 3.84375 -17.515625 3.304688 -16.976562 2.679688 -16.976562 L 2.414062 -16.976562 C 1.789062 -16.976562 1.25 -16.441406 1.25 -15.816406 L 1.25 -9.652344 C 1.25 -9.023438 1.789062 -8.488281 2.414062 -8.488281 L 2.679688 -8.488281 C 3.304688 -8.488281 3.84375 -7.953125 3.84375 -7.328125 L 3.84375 -5.449219 C 3.84375 -4.824219 4.378906 -4.289062 5.003906 -4.289062 L 5.273438 -4.289062 C 5.898438 -4.289062 6.433594 -3.753906 6.433594 -3.128906 L 6.433594 -1.160156 C 6.433594 -0.535156 6.96875 0 7.59375 0 Z M 7.59375 0 "/></g></g></g><g fill="#ffffff" fill-opacity="1"><g transform="translate(254.808516, 134.819718)"><g><path d="M 2.414062 0 L 31.1875 0 C 31.8125 0 32.347656 -0.535156 32.347656 -1.160156 L 32.347656 -7.328125 C 32.347656 -7.953125 31.8125 -8.488281 31.1875 -8.488281 L 15.371094 -8.488281 C 14.742188 -8.488281 14.207031 -9.023438 14.207031 -9.652344 L 14.207031 -11.617188 C 14.207031 -12.242188 14.742188 -12.777344 15.371094 -12.777344 L 18.230469 -12.777344 C 18.855469 -12.777344 19.390625 -13.3125 19.390625 -13.941406 L 19.390625 -15.816406 C 19.390625 -16.441406 19.925781 -16.976562 20.550781 -16.976562 L 23.410156 -16.976562 C 24.039062 -16.976562 24.574219 -17.515625 24.574219 -18.140625 L 24.574219 -20.015625 C 24.574219 -20.640625 25.109375 -21.179688 25.734375 -21.179688 L 28.59375 -21.179688 C 29.21875 -21.179688 29.757812 -21.714844 29.757812 -22.339844 L 29.757812 -24.304688 C 29.757812 -24.929688 30.292969 -25.46875 30.917969 -25.46875 L 31.1875 -25.46875 C 31.8125 -25.46875 32.347656 -26.003906 32.347656 -26.628906 L 32.347656 -41.371094 C 32.347656 -42 31.8125 -42.535156 31.1875 -42.535156 L 2.414062 -42.535156 C 1.789062 -42.535156 1.25 -42 1.25 -41.371094 L 1.25 -35.207031 C 1.25 -34.582031 1.789062 -34.046875 2.414062 -34.046875 L 23.410156 -34.046875 C 24.039062 -34.046875 24.574219 -33.507812 24.574219 -32.882812 L 24.574219 -30.917969 C 24.574219 -30.292969 24.039062 -29.757812 23.410156 -29.757812 L 20.550781 -29.757812 C 19.925781 -29.757812 19.390625 -29.21875 19.390625 -28.59375 L 19.390625 -26.628906 C 19.390625 -26.003906 18.855469 -25.46875 18.230469 -25.46875 L 15.371094 -25.46875 C 14.742188 -25.46875 14.207031 -24.929688 14.207031 -24.304688 L 14.207031 -22.339844 C 14.207031 -21.714844 13.671875 -21.179688 13.046875 -21.179688 L 10.1875 -21.179688 C 9.5625 -21.179688 9.023438 -20.640625 9.023438 -20.015625 L 9.023438 -18.140625 C 9.023438 -17.515625 8.488281 -16.976562 7.863281 -16.976562 L 5.003906 -16.976562 C 4.378906 -16.976562 3.84375 -16.441406 3.84375 -15.816406 L 3.84375 -13.941406 C 3.84375 -13.3125 3.304688 -12.777344 2.679688 -12.777344 L 2.414062 -12.777344 C 1.789062 -12.777344 1.25 -12.242188 1.25 -11.617188 L 1.25 -1.160156 C 1.25 -0.535156 1.789062 0 2.414062 0 Z M 2.414062 0 "/></g></g></g><g fill="#ffffff" fill-opacity="1"><g transform="translate(288.404864, 134.819718)"><g><path d="M 11.617188 -26.628906 L 11.617188 -28.59375 C 11.617188 -29.21875 11.082031 -29.757812 10.453125 -29.757812 L 10.1875 -29.757812 C 9.5625 -29.757812 9.023438 -30.292969 9.023438 -30.917969 L 9.023438 -32.882812 C 9.023438 -33.507812 9.5625 -34.046875 10.1875 -34.046875 L 20.820312 -34.046875 C 21.445312 -34.046875 21.980469 -33.507812 21.980469 -32.882812 L 21.980469 -30.917969 C 21.980469 -30.292969 22.519531 -29.757812 23.144531 -29.757812 L 23.410156 -29.757812 C 24.039062 -29.757812 24.574219 -29.21875 24.574219 -28.59375 L 24.574219 -26.628906 C 24.574219 -26.003906 24.039062 -25.46875 23.410156 -25.46875 L 12.777344 -25.46875 C 12.152344 -25.46875 11.617188 -26.003906 11.617188 -26.628906 Z M 10.1875 0 L 31.1875 0 C 31.8125 0 32.347656 -0.535156 32.347656 -1.160156 L 32.347656 -7.328125 C 32.347656 -7.953125 31.8125 -8.488281 31.1875 -8.488281 L 12.777344 -8.488281 C 12.152344 -8.488281 11.617188 -9.023438 11.617188 -9.652344 L 11.617188 -11.617188 C 11.617188 -12.242188 11.082031 -12.777344 10.453125 -12.777344 L 10.1875 -12.777344 C 9.5625 -12.777344 9.023438 -13.3125 9.023438 -13.941406 L 9.023438 -15.816406 C 9.023438 -16.441406 9.5625 -16.976562 10.1875 -16.976562 L 31.1875 -16.976562 C 31.8125 -16.976562 32.347656 -17.515625 32.347656 -18.140625 L 32.347656 -32.882812 C 32.347656 -33.507812 31.8125 -34.046875 31.1875 -34.046875 L 30.917969 -34.046875 C 30.292969 -34.046875 29.757812 -34.582031 29.757812 -35.207031 L 29.757812 -37.082031 C 29.757812 -37.707031 29.21875 -38.246094 28.59375 -38.246094 L 25.734375 -38.246094 C 25.109375 -38.246094 24.574219 -38.78125 24.574219 -39.40625 L 24.574219 -41.371094 C 24.574219 -42 24.039062 -42.535156 23.410156 -42.535156 L 10.1875 -42.535156 C 9.5625 -42.535156 9.023438 -42 9.023438 -41.371094 L 9.023438 -39.40625 C 9.023438 -38.78125 8.488281 -38.246094 7.863281 -38.246094 L 5.003906 -38.246094 C 4.378906 -38.246094 3.84375 -37.707031 3.84375 -37.082031 L 3.84375 -35.207031 C 3.84375 -34.582031 3.304688 -34.046875 2.679688 -34.046875 L 2.414062 -34.046875 C 1.789062 -34.046875 1.25 -33.507812 1.25 -32.882812 L 1.25 -9.652344 C 1.25 -9.023438 1.789062 -8.488281 2.414062 -8.488281 L 2.679688 -8.488281 C 3.304688 -8.488281 3.84375 -7.953125 3.84375 -7.328125 L 3.84375 -5.449219 C 3.84375 -4.824219 4.378906 -4.289062 5.003906 -4.289062 L 7.863281 -4.289062 C 8.488281 -4.289062 9.023438 -3.753906 9.023438 -3.128906 L 9.023438 -1.160156 C 9.023438 -0.535156 9.5625 0 10.1875 0 Z M 10.1875 0 "/></g></g></g></svg>